<svg width="50" height="50" viewBox="0 0 50 50" fill="none" xmlns="http://www.w3.org/2000/svg">
<rect width="50" height="50" fill="#3DB695"/>
<path d="M13 22H19V35H13C12.7348 35 12.4804 34.8946 12.2929 34.7071C12.1054 34.5196 12 34.2652 12 34V23C12 22.7348 12.1054 22.4804 12.2929 22.2929C12.4804 22.1054 12.7348 22 13 22Z" stroke="#C5EDE3" stroke-width="2" stroke-linecap="round" stroke-linejoin="round"/>
<path d="M19 22L24 12C25.0609 12 26.0783 12.4214 26.8284 13.1716C27.5786 13.9217 28 14.9391 28 16V19H35.7375C36.0211 18.9993 36.3015 19.0593 36.56 19.176C36.8185 19.2926 37.049 19.4632 37.2361 19.6764C37.4232 19.8895 37.5625 20.1402 37.6447 20.4116C37.7268 20.683 37.75 20.9689 37.7125 21.25L36.2125 33.25C36.1518 33.7317 35.918 34.1749 35.5546 34.4969C35.1912 34.8189 34.723 34.9977 34.2375 35H19" stroke="#CAFFF8" stroke-width="2" stroke-linecap="round" stroke-linejoin="round"/>
</svg>
