<svg width="40" height="40" viewBox="0 0 40 40" fill="none" xmlns="http://www.w3.org/2000/svg">
<path d="M23.9808 23.5377L23.9955 23.5733L23.9635 24.4784L23.0414 23.6414L23.9536 23.5352L23.9808 23.5377Z" fill="#CAFFF8"/>
<path d="M16.1114 23.5565L16.1478 23.5436L17.0543 23.6212L16.1679 24.4956L16.1075 23.5834L16.1114 23.5565Z" fill="#CAFFF8"/>
<rect width="9.95392" height="10.0917" transform="translate(23.7788 23.6697)" fill="#CAFFF8"/>
<rect width="9.95392" height="10.0917" transform="translate(6.26727 23.6697)" fill="#CAFFF8"/>
<path d="M19.9903 5.32111L20.7276 5.59634L33.1603 17.156H6.82031L19.5295 5.59634L19.9903 5.32111Z" fill="#CAFFF8"/>
<rect width="28" height="7" transform="translate(6 17)" fill="#CAFFF8"/>
<path d="M33.75 33.75V18.0469C33.7472 17.8739 33.7098 17.7032 33.64 17.5449C33.5703 17.3866 33.4695 17.2438 33.3437 17.125L20.8437 5.76566C20.6133 5.55484 20.3123 5.43793 20 5.43793C19.6877 5.43793 19.3867 5.55484 19.1562 5.76566L6.65625 17.125C6.53047 17.2438 6.42972 17.3866 6.35995 17.5449C6.29018 17.7032 6.2528 17.8739 6.25 18.0469V33.75" stroke="#CAFFF8" stroke-width="2" stroke-linecap="round" stroke-linejoin="round"/>
<path d="M2.5 33.75H37.5" stroke="#CAFFF8" stroke-width="2" stroke-linecap="round" stroke-linejoin="round"/>
<path d="M23.75 33.75V25C23.75 24.6685 23.6183 24.3505 23.3839 24.1161C23.1495 23.8817 22.8315 23.75 22.5 23.75H17.5C17.1685 23.75 16.8505 23.8817 16.6161 24.1161C16.3817 24.3505 16.25 24.6685 16.25 25V33.75" stroke="#CAFFF8" stroke-width="2" stroke-linecap="round" stroke-linejoin="round"/>
</svg>
