<svg width="40" height="41" viewBox="0 0 40 41" fill="none" xmlns="http://www.w3.org/2000/svg">
<path d="M34.1564 13.5124L34.2066 13.6541L33.9926 16.985L30.6891 13.259L34.0564 13.4846L34.1564 13.5124Z" fill="#CAFFF8"/>
<path d="M5.30073 12.7061L5.40853 12.6864L8.02227 13.3665L5.30288 15.5066L5.28483 12.7837L5.30073 12.7061Z" fill="#CAFFF8"/>
<path d="M35.0361 34.4015L34.9256 34.4521L31.871 34.427L34.1248 31.3704L35.0281 34.3131L35.0361 34.4015Z" fill="#CAFFF8"/>
<path d="M5.95189 39.4871L5.84066 39.2878L5.32357 32.6275L11.2274 35.0579L6.10921 39.3983L5.95189 39.4871Z" fill="#CAFFF8"/>
<path d="M12.0938 35.2969L7.04687 39.5156C6.86477 39.6663 6.64366 39.7623 6.40921 39.7924C6.17477 39.8225 5.93658 39.7855 5.7223 39.6858C5.50802 39.586 5.32642 39.4275 5.19857 39.2287C5.07073 39.0299 5.00187 38.7989 5 38.5625V13.75C5 13.4185 5.1317 13.1005 5.36612 12.8661C5.60054 12.6317 5.91848 12.5 6.25 12.5H33.75C34.0815 12.5 34.3995 12.6317 34.6339 12.8661C34.8683 13.1005 35 13.4185 35 13.75V33.75C35 34.0815 34.8683 34.3995 34.6339 34.6339C34.3995 34.8683 34.0815 35 33.75 35H12.8906C12.598 35.0001 12.3151 35.1055 12.0938 35.2969Z" stroke="#CAFFF8" stroke-width="2" stroke-linecap="round" stroke-linejoin="round"/>
<rect x="4" y="13" width="30.1075" height="22.3474" rx="5" fill="#CAFFF8"/>
</svg>
